<svg width="19" height="19" viewBox="0 0 19 19" fill="none" xmlns="http://www.w3.org/2000/svg">
<path d="M7.58334 1.19583C8.84691 1.19468 10.0824 1.56832 11.1336 2.26948C12.1848 2.97065 13.0044 3.96784 13.4888 5.1349C13.9731 6.30196 14.1004 7.58645 13.8546 8.82589C13.6088 10.0653 13.001 11.204 12.1079 12.0979C11.2148 12.9918 10.0767 13.6007 8.83746 13.8477C7.59824 14.0946 6.31363 13.9684 5.14613 13.4852C3.97863 13.0019 2.98069 12.1832 2.27856 11.1326C1.57644 10.0821 1.20167 8.84691 1.20167 7.58333C1.20933 5.89263 1.88396 4.27327 3.07893 3.07721C4.2739 1.88114 5.89264 1.20504 7.58334 1.19583V1.19583ZM7.58334 0C6.08349 0 4.61734 0.444755 3.37026 1.27802C2.12319 2.11129 1.15121 3.29564 0.57725 4.68132C0.00328585 6.06699 -0.14689 7.59174 0.145715 9.06277C0.43832 10.5338 1.16056 11.885 2.22111 12.9456C3.28166 14.0061 4.63288 14.7283 6.1039 15.021C7.57492 15.3136 9.09968 15.1634 10.4854 14.5894C11.871 14.0155 13.0554 13.0435 13.8886 11.7964C14.7219 10.5493 15.1667 9.08317 15.1667 7.58333C15.1667 5.57211 14.3677 3.64326 12.9456 2.22111C11.5234 0.798956 9.59456 0 7.58334 0Z" fill="black"/>
<path d="M18.4742 17.6692L14.175 13.3408L13.3467 14.1633L17.6458 18.4917C17.6999 18.546 17.764 18.5893 17.8348 18.6188C17.9055 18.6484 17.9813 18.6638 18.0579 18.6641C18.1346 18.6643 18.2105 18.6495 18.2815 18.6204C18.3524 18.5913 18.4169 18.5486 18.4713 18.4946C18.5256 18.4406 18.5689 18.3764 18.5984 18.3057C18.628 18.235 18.6434 18.1591 18.6437 18.0825C18.6439 18.0058 18.6291 17.9299 18.6 17.859C18.5709 17.788 18.5282 17.7235 18.4742 17.6692Z" fill="black"/>
</svg>
