<svg viewBox="0 0 91 139" fill="none" xmlns="http://www.w3.org/2000/svg">
<rect width="91" height="139" fill="black"/>
<path d="M25.7829 22.736H24.0707C23.3443 22.736 22.8207 22.552 22.4999 22.1841C22.1792 21.8067 22.0188 21.3115 22.0188 20.6982C22.0188 19.3398 23.033 18.6605 25.0612 18.6605C26.9669 18.6605 28.4008 18.9435 29.3631 19.5096L28.5423 20.1322C27.882 19.8303 26.7216 19.6794 25.0612 19.6794C24.2499 19.6794 23.7028 19.769 23.4197 19.9483C23.1462 20.1275 23.0094 20.3775 23.0094 20.6982C23.0094 21.019 23.0848 21.269 23.2358 21.4482C23.3867 21.6275 23.665 21.7171 24.0707 21.7171H25.8254C27.099 21.7171 28.2452 21.9341 29.264 22.368C30.2923 22.802 31.1367 23.3963 31.797 24.151C32.4574 24.8963 32.9621 25.7595 33.3112 26.7407C33.6602 27.7123 33.8347 28.7548 33.8347 29.868C33.8347 30.7736 33.7074 31.6321 33.4527 32.4434C33.198 33.2547 32.8112 34 32.2923 34.6793C31.7829 35.3585 31.165 35.9481 30.4386 36.4481C29.7216 36.9387 28.8631 37.3208 27.8631 37.5943C26.8725 37.8774 25.7971 38.0189 24.6367 38.0189C22.816 38.0189 21.1084 37.7406 19.5141 37.184C17.9292 36.6368 16.6085 35.8679 15.5519 34.8774L16.3726 34.2689C17.3349 35.1368 18.5377 35.8113 19.9811 36.2925C21.4339 36.7642 22.9858 37 24.6367 37C25.9292 37 27.0942 36.816 28.132 36.4481C29.1791 36.0708 30.0376 35.5566 30.7074 34.9057C31.3867 34.2547 31.9055 33.5 32.264 32.6415C32.6319 31.7831 32.8159 30.8585 32.8159 29.868C32.8159 28.5567 32.5517 27.3727 32.0234 26.3161C31.4951 25.2501 30.6885 24.3869 29.6037 23.7265C28.5282 23.0662 27.2546 22.736 25.7829 22.736ZM24.0707 23.7548H25.6839C27.599 23.7548 29.0942 24.3397 30.1697 25.5095C31.2546 26.6793 31.797 28.1321 31.797 29.868C31.797 31.6321 31.1697 33.0944 29.915 34.2547C28.6603 35.4057 26.9008 35.9811 24.6367 35.9811C23.1273 35.9811 21.7169 35.7736 20.4056 35.3585C19.0943 34.9434 18.0047 34.3585 17.1368 33.6038L17.9292 32.967C18.7028 33.5991 19.6745 34.0896 20.8443 34.4387C22.0235 34.7878 23.2877 34.9623 24.6367 34.9623C26.6273 34.9623 28.1461 34.4859 29.1933 33.533C30.2499 32.5802 30.7782 31.3585 30.7782 29.868C30.7782 28.3963 30.3348 27.1793 29.448 26.2171C28.5706 25.2548 27.3112 24.7737 25.6697 24.7737H24.0707C22.6933 24.7737 21.6603 24.3963 20.9716 23.6416C20.283 22.8869 19.9386 21.9058 19.9386 20.6982C19.9386 19.4907 20.3632 18.5096 21.2122 17.7549C22.0707 17.0002 23.3537 16.6228 25.0612 16.6228C26.2593 16.6228 27.3725 16.7643 28.4008 17.0473C29.4291 17.3209 30.2782 17.7171 30.948 18.236L30.1414 18.8586C28.9621 18.0473 27.2688 17.6417 25.0612 17.6417C23.6367 17.6417 22.5943 17.9247 21.9339 18.4907C21.283 19.0473 20.9575 19.7832 20.9575 20.6982C20.9575 21.6228 21.1981 22.3633 21.6792 22.9199C22.1698 23.4765 22.9669 23.7548 24.0707 23.7548ZM24.0707 25.7925H25.6273C27.0046 25.7925 28.0376 26.1746 28.7263 26.9388C29.415 27.7029 29.7593 28.6793 29.7593 29.868C29.7593 31.0755 29.3301 32.0566 28.4716 32.8114C27.6225 33.5661 26.3442 33.9434 24.6367 33.9434C23.4386 33.9434 22.3207 33.8066 21.283 33.533C20.2547 33.25 19.4056 32.8491 18.7358 32.3302L19.5424 31.7076C20.7217 32.5189 22.4197 32.9246 24.6367 32.9246C26.0612 32.9246 27.099 32.6463 27.7499 32.0897C28.4103 31.5236 28.7405 30.7831 28.7405 29.868C28.7405 28.9529 28.4952 28.2171 28.0046 27.6605C27.514 27.0944 26.7169 26.8114 25.6131 26.8114H24.0707C22.1367 26.8114 20.6226 26.2359 19.5283 25.085C18.4434 23.9246 17.9009 22.4624 17.9009 20.6982C17.9009 18.9341 18.5283 17.4766 19.783 16.3256C21.0377 15.1653 22.7971 14.5851 25.0612 14.5851C26.5707 14.5851 27.9763 14.7926 29.2782 15.2077C30.5895 15.6228 31.6791 16.2077 32.547 16.9624L31.7546 17.5992C30.981 16.9671 30.0093 16.4766 28.8395 16.1275C27.6697 15.7785 26.4103 15.604 25.0612 15.604C23.0707 15.604 21.5471 16.0804 20.4905 17.0332C19.4434 17.986 18.9198 19.2077 18.9198 20.6982C18.9198 22.1794 19.3632 23.4011 20.25 24.3633C21.1367 25.3161 22.4103 25.7925 24.0707 25.7925ZM24.0707 27.8303H25.6273C26.3537 27.8303 26.8773 28.0189 27.198 28.3963C27.5188 28.7737 27.6791 29.2642 27.6791 29.868C27.6791 31.2265 26.665 31.9057 24.6367 31.9057C22.7216 31.9057 21.283 31.6227 20.3207 31.0567L21.1415 30.434C21.8018 30.7359 22.9669 30.8868 24.6367 30.8868C25.448 30.8868 25.9905 30.7972 26.2641 30.618C26.5471 30.4387 26.6886 30.1887 26.6886 29.868C26.6886 29.5567 26.6084 29.3114 26.448 29.1321C26.2971 28.9435 26.0141 28.8491 25.599 28.8491H24.0707C22.7688 28.8491 21.5896 28.6369 20.533 28.2123C19.4858 27.7878 18.6226 27.2029 17.9434 26.4576C17.2736 25.7124 16.7594 24.8492 16.4009 23.868C16.0424 22.8869 15.8632 21.8303 15.8632 20.6982C15.8632 19.7926 15.9906 18.9341 16.2453 18.1228C16.5 17.3115 16.8821 16.5662 17.3915 15.887C17.9104 15.2077 18.5283 14.6228 19.2452 14.1323C19.9717 13.6323 20.8301 13.2455 21.8207 12.9719C22.8207 12.6889 23.9009 12.5474 25.0612 12.5474C26.882 12.5474 28.5848 12.8257 30.1697 13.3823C31.7546 13.9294 33.0753 14.6983 34.1319 15.6889L33.3112 16.2973C32.3489 15.4294 31.1461 14.7596 29.7027 14.2879C28.2593 13.8068 26.7122 13.5662 25.0612 13.5662C23.7688 13.5662 22.599 13.7549 21.5518 14.1323C20.5141 14.5002 19.6556 15.0096 18.9764 15.6606C18.3066 16.3115 17.7877 17.0662 17.4198 17.9247C17.0613 18.7832 16.8821 19.7077 16.8821 20.6982C16.8821 22.0284 17.1509 23.2265 17.6887 24.2926C18.2264 25.3586 19.0471 26.2171 20.1509 26.868C21.2547 27.5095 22.5613 27.8303 24.0707 27.8303ZM73.0042 13.5662H74.0231V37H73.0042V13.5662ZM50.5893 13.5662H51.6082V37H50.5893V13.5662ZM70.9665 13.5662H71.9854V37H70.9665V13.5662ZM68.9288 13.5662H69.9477V37H68.9288V13.5662ZM66.8911 13.5662H67.9099V37H66.8911V27.8161H57.7213V37H56.7025V13.5662H57.7213V22.7218H66.8911V13.5662ZM54.6648 13.5662H55.6836V37H54.6648V13.5662ZM52.627 13.5662H53.6459V37H52.627V13.5662ZM66.8911 26.7973V25.7784H57.7213V26.7973H66.8911ZM66.8911 24.7595V23.7407H57.7213V24.7595H66.8911ZM26.4339 75.1227L26.8442 74.1038H30.3253L30.7357 75.1227H26.4339ZM25.6414 77.1604L26.0376 76.1416H31.1178L31.5565 77.1604H25.6414ZM24.849 79.1981L25.2452 78.1793H31.9244L32.3489 79.1981H24.849ZM16.5707 82H15.467L24.7358 58.5662H25.8395L35.0942 82H34.0046L25.2877 59.9389L16.5707 82ZM25.415 62.3587L25.9952 63.6605L18.75 82H17.6604L25.415 62.3587ZM26.5471 65.0473L27.0848 66.4482L20.9575 82H19.8537L26.5471 65.0473ZM27.6225 67.8492L28.1603 69.2784L23.1367 82H22.0471L27.6225 67.8492ZM41.6743 82H40.5705L31.3159 58.5662H32.4055L41.6743 82ZM30.2121 58.5662L39.4809 82H38.3913L29.1225 58.5662H30.2121ZM28.0188 58.5662L37.2876 82H36.1838L26.9291 58.5662H28.0188ZM57.1055 75.8868V64.6794C57.1055 64.6794 59.4215 64.6794 64.0536 64.6794C65.1762 64.6794 66.1384 65.2313 66.9403 66.335C67.7516 67.4294 68.1573 68.7454 68.1573 70.2831C68.1573 71.8303 67.7516 73.151 66.9403 74.2453C66.1384 75.3397 65.1762 75.8868 64.0536 75.8868H57.1055ZM58.1244 74.868H64.0536C64.8932 74.868 65.6101 74.4199 66.2045 73.5237C66.8082 72.6274 67.1101 71.5473 67.1101 70.2831C67.1101 69.0095 66.8082 67.9294 66.2045 67.0426C65.6101 66.1464 64.8932 65.6982 64.0536 65.6982H58.1244V74.868ZM56.0866 76.9057H64.0536C65.4592 76.9057 66.6667 76.2595 67.6762 74.967C68.695 73.6652 69.2045 72.1039 69.2045 70.2831C69.2045 69.085 68.9686 67.9765 68.4969 66.9577C68.0347 65.9388 67.4073 65.1369 66.6149 64.552C65.8318 63.9577 64.9781 63.6605 64.0536 63.6605H56.0866V76.9057ZM55.0678 77.9246V62.6417H64.0536C65.1573 62.6417 66.1856 62.9813 67.1384 63.6605C68.0913 64.3398 68.846 65.269 69.4026 66.4482C69.9686 67.618 70.2516 68.8963 70.2516 70.2831C70.2516 71.6605 69.9686 72.9388 69.4026 74.118C68.846 75.2972 68.0913 76.2265 67.1384 76.9057C66.1856 77.5849 65.1573 77.9246 64.0536 77.9246H55.0678ZM54.0489 78.9434H64.0536C65.346 78.9434 66.5441 78.5566 67.6479 77.7831C68.7611 77.0095 69.6478 75.9576 70.3082 74.6274C70.9686 73.2972 71.2988 71.8491 71.2988 70.2831C71.2988 68.7265 70.9686 67.2831 70.3082 65.953C69.6478 64.6134 68.7611 63.5568 67.6479 62.7832C66.5347 62.0096 65.3366 61.6228 64.0536 61.6228H54.0489V78.9434ZM53.0301 79.9623V60.604H64.0536C65.5252 60.604 66.8979 61.0379 68.1714 61.9058C69.445 62.7643 70.4592 63.9388 71.2139 65.4294C71.9686 66.9199 72.3459 68.5378 72.3459 70.2831C72.3459 72.0284 71.9686 73.6463 71.2139 75.1368C70.4592 76.6274 69.445 77.8066 68.1714 78.6746C66.8979 79.533 65.5252 79.9623 64.0536 79.9623H53.0301ZM52.0112 80.9811H64.0536C65.2894 80.9811 66.4828 80.6981 67.6337 80.1321C68.7846 79.5661 69.7799 78.8066 70.6195 77.8538C71.4592 76.901 72.129 75.7642 72.629 74.4435C73.1384 73.1133 73.3931 71.7265 73.3931 70.2831C73.3931 68.8397 73.1384 67.4577 72.629 66.1369C72.129 64.8162 71.4592 63.6794 70.6195 62.7266C69.7799 61.7643 68.7846 61.0002 67.6337 60.4341C66.4828 59.8681 65.2894 59.5851 64.0536 59.5851H52.0112V80.9811ZM64.0536 82H50.9923V58.5662H64.0536C65.8932 58.5662 67.6101 59.0898 69.2045 60.137C70.7988 61.1841 72.0676 62.6087 73.011 64.4105C73.9639 66.2124 74.4403 68.1699 74.4403 70.2831C74.4403 71.868 74.1572 73.3869 73.5912 74.8397C73.0346 76.2831 72.2893 77.5283 71.3554 78.5755C70.4214 79.6227 69.3129 80.4576 68.0299 81.0802C66.7564 81.6934 65.4309 82 64.0536 82ZM27.3961 120.887L29.0801 119.868H38.5611V120.887H27.3961ZM24.0565 122.925L25.7688 121.906H38.5611V122.925H24.0565ZM20.6745 124.962L22.4009 123.943H38.5611V124.962H20.6745ZM27.2829 109.679L25.599 110.698H16.1179V109.679H27.2829ZM30.6225 107.642L28.9103 108.661H16.1179V107.642H30.6225ZM34.0046 105.604L32.2782 106.623H16.1179V105.604H34.0046ZM38.5611 105.958V107.146L16.1179 122.231V121.043L38.5611 105.958ZM38.5611 108.363V109.566L16.1179 124.637V123.42L38.5611 108.363ZM38.5611 110.755V111.944L17.6321 125.981H38.5611V127H16.1179C16.1179 127 16.1179 126.599 16.1179 125.797L38.5611 110.755ZM37.047 104.585H16.1179V103.566H38.5611C38.5611 103.566 38.5611 103.972 38.5611 104.783L16.1179 119.826V118.651L37.047 104.585Z" fill="white"/>
</svg>
