<svg width="24" height="27" viewBox="0 0 24 27" fill="none" xmlns="http://www.w3.org/2000/svg">
<path d="M0.643555 4.59375H19.0186V17.7188C19.0186 18.4149 18.742 19.0826 18.2497 19.5749C17.7574 20.0672 17.0897 20.3438 16.3936 20.3438H3.26855C2.57236 20.3438 1.90468 20.0672 1.4124 19.5749C0.920116 19.0826 0.643555 18.4149 0.643555 17.7188V4.59375ZM9.83105 1.3125C8.96081 1.3125 8.12621 1.6582 7.51086 2.27356C6.89551 2.88891 6.5498 3.72351 6.5498 4.59375H5.2373C5.2373 3.37541 5.72129 2.20697 6.58278 1.34548C7.44428 0.483983 8.61272 0 9.83105 0C11.0494 0 12.2178 0.483983 13.0793 1.34548C13.9408 2.20697 14.4248 3.37541 14.4248 4.59375H13.1123C13.1123 3.72351 12.7666 2.88891 12.1512 2.27356C11.5359 1.6582 10.7013 1.3125 9.83105 1.3125Z" fill="black"/>
<circle cx="15.3311" cy="18.3438" r="7.5102" fill="white" stroke="black" stroke-width="0.979592"/>
<path d="M17.8161 21.1437V21.9763H13.741V21.1437H15.2691V16.2065L13.8487 17.0882V16.1575L15.7002 15.0016H16.2879V21.1437H17.8161Z" fill="black"/>
</svg>
