<svg width="11" height="11" viewBox="0 0 11 11" fill="none" xmlns="http://www.w3.org/2000/svg">
<path fill-rule="evenodd" clip-rule="evenodd" d="M1.13126 4.56925C1.16319 4.53724 1.20113 4.51184 1.24289 4.49451C1.28465 4.47718 1.32942 4.46826 1.37464 4.46826C1.41985 4.46826 1.46462 4.47718 1.50639 4.49451C1.54815 4.51184 1.58608 4.53724 1.61801 4.56925L5.49964 8.45156L9.38126 4.56925C9.44581 4.5047 9.53335 4.46844 9.62464 4.46844C9.71592 4.46844 9.80347 4.5047 9.86801 4.56925C9.93256 4.6338 9.96882 4.72134 9.96882 4.81263C9.96882 4.90391 9.93256 4.99145 9.86801 5.056L5.74301 9.181C5.71108 9.21301 5.67315 9.23841 5.63139 9.25574C5.58962 9.27307 5.54485 9.28199 5.49964 9.28199C5.45442 9.28199 5.40965 9.27307 5.36789 9.25574C5.32613 9.23841 5.28819 9.21301 5.25626 9.181L1.13126 5.056C1.09925 5.02407 1.07385 4.98614 1.05652 4.94437C1.03919 4.90261 1.03027 4.85784 1.03027 4.81263C1.03027 4.76741 1.03919 4.72264 1.05652 4.68088C1.07385 4.63912 1.09925 4.60118 1.13126 4.56925Z" fill="black"/>
<path fill-rule="evenodd" clip-rule="evenodd" d="M1.13175 1.81925C1.16368 1.78724 1.20162 1.76184 1.24338 1.74451C1.28514 1.72718 1.32991 1.71826 1.37513 1.71826C1.42034 1.71826 1.46511 1.72718 1.50687 1.74451C1.54864 1.76184 1.58657 1.78724 1.6185 1.81925L5.50013 5.70156L9.38175 1.81925C9.41371 1.78729 9.45165 1.76194 9.49341 1.74464C9.53517 1.72734 9.57993 1.71844 9.62513 1.71844C9.67033 1.71844 9.71508 1.72734 9.75684 1.74464C9.7986 1.76194 9.83654 1.78729 9.8685 1.81925C9.90046 1.85121 9.92581 1.88915 9.94311 1.93091C9.96041 1.97267 9.96931 2.01743 9.96931 2.06263C9.96931 2.10783 9.96041 2.15258 9.94311 2.19434C9.92581 2.2361 9.90046 2.27404 9.8685 2.306L5.7435 6.431C5.71157 6.46301 5.67364 6.48841 5.63187 6.50574C5.59011 6.52307 5.54534 6.53199 5.50013 6.53199C5.45491 6.53199 5.41014 6.52307 5.36838 6.50574C5.32662 6.48841 5.28868 6.46301 5.25675 6.431L1.13175 2.306C1.09974 2.27407 1.07434 2.23614 1.05701 2.19437C1.03968 2.15261 1.03076 2.10784 1.03076 2.06263C1.03076 2.01741 1.03968 1.97264 1.05701 1.93088C1.07434 1.88912 1.09974 1.85118 1.13175 1.81925Z" fill="black"/>
</svg>
