<svg width="18" height="18" viewBox="0 0 18 18" fill="none" xmlns="http://www.w3.org/2000/svg">
<path d="M1.93779 0H17.0646C17.5855 0 18.0001 0.41458 18.0001 0.935462V16.0729C18.0001 16.5832 17.5855 17.0084 17.0646 17.0084H12.7275V10.4176H14.9386L15.2681 7.85576H12.7275V6.2187C12.7275 5.47458 12.9401 4.96433 14.0031 4.96433H15.3638V2.66819C15.1299 2.6363 14.322 2.57252 13.3866 2.57252C11.42 2.57252 10.0806 3.76311 10.0806 5.96357V7.85576H7.85884V10.4176H10.0806V17.0084H1.93779C1.6887 17.0084 1.44966 16.9102 1.27253 16.7351C1.09541 16.5599 0.994498 16.322 0.991699 16.0729V0.935462C0.991699 0.41458 1.41691 0 1.93779 0Z" fill="black"/>
</svg>
