<svg width="18" height="18" viewBox="0 0 18 18" fill="none" xmlns="http://www.w3.org/2000/svg">
<path d="M9.15719 4.14065C6.74254 4.14065 4.79379 6.08939 4.79379 8.50404C4.79379 10.9187 6.74254 12.8674 9.15719 12.8674C11.5718 12.8674 13.5206 10.9187 13.5206 8.50404C13.5206 6.08939 11.5718 4.14065 9.15719 4.14065ZM9.15719 11.3399C7.59564 11.3399 6.3213 10.0656 6.3213 8.50404C6.3213 6.9425 7.59564 5.66816 9.15719 5.66816C10.7187 5.66816 11.9931 6.9425 11.9931 8.50404C11.9931 10.0656 10.7187 11.3399 9.15719 11.3399ZM13.6993 2.94502C13.1355 2.94502 12.6802 3.4003 12.6802 3.96407C12.6802 4.52784 13.1355 4.98312 13.6993 4.98312C14.2631 4.98312 14.7183 4.52997 14.7183 3.96407C14.7185 3.8302 14.6923 3.69761 14.6411 3.5739C14.59 3.45019 14.5149 3.33778 14.4202 3.24312C14.3256 3.14846 14.2132 3.0734 14.0895 3.02225C13.9658 2.9711 13.8332 2.94485 13.6993 2.94502ZM17.6627 8.50404C17.6627 7.32969 17.6734 6.16598 17.6074 4.99375C17.5415 3.63219 17.2309 2.4238 16.2352 1.42815C15.2374 0.430377 14.0312 0.121897 12.6696 0.0559464C11.4953 -0.0100045 10.3315 0.000632797 9.15932 0.000632797C7.98496 0.000632797 6.82125 -0.0100045 5.64903 0.0559464C4.28746 0.121897 3.07907 0.432505 2.08342 1.42815C1.08565 2.42592 0.777171 3.63219 0.71122 4.99375C0.645269 6.16811 0.655906 7.33182 0.655906 8.50404C0.655906 9.67627 0.645269 10.8421 0.71122 12.0143C0.777171 13.3759 1.08778 14.5843 2.08342 15.5799C3.0812 16.5777 4.28746 16.8862 5.64903 16.9521C6.82338 17.0181 7.98709 17.0075 9.15932 17.0075C10.3337 17.0075 11.4974 17.0181 12.6696 16.9521C14.0312 16.8862 15.2396 16.5756 16.2352 15.5799C17.233 14.5822 17.5415 13.3759 17.6074 12.0143C17.6755 10.8421 17.6627 9.6784 17.6627 8.50404ZM15.7906 13.5206C15.6353 13.9078 15.4481 14.1971 15.1481 14.4949C14.8481 14.7949 14.5609 14.9821 14.1737 15.1374C13.0547 15.5821 10.3975 15.4821 9.15719 15.4821C7.91689 15.4821 5.25758 15.5821 4.13854 15.1396C3.75134 14.9843 3.46201 14.797 3.16417 14.4971C2.8642 14.1971 2.67698 13.9099 2.52168 13.5227C2.07917 12.4015 2.17916 9.74435 2.17916 8.50404C2.17916 7.26374 2.07917 4.60443 2.52168 3.48539C2.67698 3.0982 2.8642 2.80886 3.16417 2.51102C3.46414 2.21318 3.75134 2.02384 4.13854 1.86853C5.25758 1.42602 7.91689 1.52601 9.15719 1.52601C10.3975 1.52601 13.0568 1.42602 14.1758 1.86853C14.563 2.02384 14.8524 2.21105 15.1502 2.51102C15.4502 2.81099 15.6374 3.0982 15.7927 3.48539C16.2352 4.60443 16.1352 7.26374 16.1352 8.50404C16.1352 9.74435 16.2352 12.4015 15.7906 13.5206Z" fill="black"/>
</svg>
