<svg width="18" height="18" viewBox="0 0 18 18" fill="none" xmlns="http://www.w3.org/2000/svg">
<path d="M0 0V17.0084H17.0084V0H0ZM1.54622 1.54622H15.4622V15.4622H6.58225C6.77708 15.071 6.9518 14.6667 7.04689 14.2994C7.15049 13.9021 7.73109 12.1687 7.73109 12.1687C8.00709 12.6968 8.81576 13.1429 9.67469 13.1429C12.2321 13.1429 13.916 10.9063 13.916 7.98622C13.916 5.18756 11.6307 3.09244 8.68975 3.09244C5.03139 3.09244 3.09244 5.54706 3.09244 8.22202C3.09244 9.4644 3.75499 11.0106 4.81106 11.5046C4.97341 11.5804 5.05691 11.5448 5.09479 11.3894C5.12262 11.2719 5.26642 10.6967 5.32904 10.4308C5.34095 10.3889 5.34173 10.3446 5.33129 10.3023C5.32085 10.26 5.29956 10.2211 5.26951 10.1896C4.92161 9.76437 4.63866 8.98508 4.63866 8.25681C4.63866 6.38588 6.05345 4.57681 8.46632 4.57681C10.5475 4.57681 12.0072 5.99624 12.0072 8.02487C12.0072 10.3171 11.006 11.7915 9.49765 11.7915C8.66578 11.7915 7.88958 11.2178 8.08595 10.372C8.32407 9.3639 8.78639 8.27691 8.78639 7.54864C8.78639 5.71946 6.18333 5.9715 6.18333 8.4122C6.18333 9.16134 6.43227 9.6716 6.43227 9.6716C5.61123 13.3346 5.37775 14.134 5.44965 15.4622H1.54622V1.54622Z" fill="black"/>
</svg>
