<svg width="22" height="21" viewBox="0 0 22 21" fill="none" xmlns="http://www.w3.org/2000/svg">
<path d="M11.1436 0C5.34456 0 0.643555 4.70101 0.643555 10.5C0.643555 16.299 5.34456 21 11.1436 21C16.9425 21 21.6436 16.299 21.6436 10.5C21.6436 4.70101 16.9425 0 11.1436 0ZM13.4674 6.0113C14.715 5.99181 15.8434 6.67011 16.3783 7.82647C16.873 9.3552 16.459 10.9104 15.5864 12.0825C15.0104 12.8773 14.322 13.5627 13.6183 14.1616C12.9708 14.7643 11.5216 15.9569 11.1376 15.99C10.7981 15.9251 10.417 15.5407 10.1475 15.3431C8.6332 14.1919 7.00337 12.7926 6.17681 11.262C5.48379 9.79249 5.48253 7.97435 6.56111 6.84775C7.95966 5.58691 10.0679 5.83369 11.1376 7.15094C11.4248 6.77828 11.7782 6.48478 12.1974 6.27127C12.6223 6.10169 13.0515 6.01781 13.4674 6.0113V6.0113Z" fill="black"/>
</svg>
